<svg width="24" height="24" viewBox="0 0 24 24" fill="none" xmlns="http://www.w3.org/2000/svg">
<rect y="0.00012207" width="24" height="24" rx="3" fill="#FFCC00"/>
<path d="M18.9203 8.59606C18.7772 8.47663 18.6035 8.39983 18.4188 8.37441C18.2342 8.349 18.0462 8.37599 17.8762 8.45231L14.7147 9.8575L12.8739 6.54406C12.7873 6.38816 12.6606 6.25827 12.5069 6.16783C12.3532 6.07739 12.1781 6.02969 11.9998 6.02969C11.8215 6.02969 11.6464 6.07739 11.4927 6.16783C11.339 6.25827 11.2123 6.38816 11.1257 6.54406L9.28479 9.85743L6.12285 8.452C5.95273 8.3764 5.76488 8.3498 5.58045 8.37518C5.39602 8.40057 5.22235 8.47693 5.07897 8.59567C4.93559 8.71441 4.8282 8.87082 4.7689 9.04728C4.70959 9.22375 4.70072 9.41326 4.74329 9.5945L6.33354 16.3655C6.3638 16.4966 6.42046 16.6201 6.50006 16.7286C6.57967 16.837 6.68055 16.9281 6.79654 16.9962C6.91314 17.0649 7.04234 17.1094 7.17648 17.1271C7.31061 17.1448 7.44693 17.1354 7.57735 17.0994C10.4705 16.3007 13.5259 16.3004 16.4192 17.0986C16.5495 17.1345 16.6858 17.1439 16.8199 17.1262C16.9539 17.1084 17.0831 17.064 17.1996 16.9954C17.3155 16.9273 17.4164 16.8363 17.496 16.7279C17.5756 16.6196 17.6323 16.4961 17.6626 16.3651L19.2557 9.59525C19.2991 9.414 19.2906 9.22422 19.2313 9.04756C19.172 8.8709 19.0642 8.71447 18.9202 8.59612L18.9203 8.59606ZM16.6864 16.1349C13.6173 15.2876 10.3759 15.2885 7.30729 16.1375L7.3071 16.1369L5.71679 9.36587L8.87866 10.7712C9.10682 10.8738 9.36528 10.8868 9.60256 10.8075C9.83983 10.7281 10.0385 10.5623 10.159 10.3431L11.9998 7.02962L13.8406 10.3431C13.9611 10.5623 14.1598 10.7281 14.3971 10.8075C14.6343 10.8868 14.8928 10.8738 15.1209 10.7712L18.2824 9.36606L16.6864 16.1349ZM14.497 14.1574C14.4902 14.2227 14.4706 14.2861 14.4393 14.3438C14.408 14.4015 14.3656 14.4525 14.3146 14.4939C14.2635 14.5352 14.2048 14.566 14.1418 14.5847C14.0788 14.6033 14.0128 14.6093 13.9475 14.6023C12.6526 14.4663 11.347 14.4663 10.0521 14.6023C9.92057 14.6155 9.78917 14.5761 9.68663 14.4926C9.58409 14.4092 9.51877 14.2886 9.50494 14.1571C9.49111 14.0257 9.5299 13.8941 9.61283 13.7911C9.69576 13.6882 9.81608 13.6223 9.94748 13.6078C11.3119 13.4645 12.6876 13.4645 14.0521 13.6078C14.1174 13.6147 14.1807 13.6343 14.2384 13.6657C14.2961 13.697 14.3471 13.7394 14.3884 13.7904C14.4297 13.8415 14.4606 13.9001 14.4793 13.9631C14.4979 14.026 14.504 14.0921 14.4971 14.1574H14.497Z" fill="#333333"/>
</svg>
