<svg width="28" height="30" viewBox="0 0 28 30" fill="none" xmlns="http://www.w3.org/2000/svg">
<path d="M25.25 2.5H21.875V1.375C21.875 1.07663 21.7565 0.790483 21.5455 0.579505C21.3345 0.368526 21.0484 0.25 20.75 0.25C20.4516 0.25 20.1655 0.368526 19.9545 0.579505C19.7435 0.790483 19.625 1.07663 19.625 1.375V2.5H8.375V1.375C8.375 1.07663 8.25647 0.790483 8.0455 0.579505C7.83452 0.368526 7.54837 0.25 7.25 0.25C6.95163 0.25 6.66548 0.368526 6.4545 0.579505C6.24353 0.790483 6.125 1.07663 6.125 1.375V2.5H2.75C2.15347 2.50067 1.58156 2.73794 1.15975 3.15975C0.737938 3.58156 0.50067 4.15347 0.5 4.75V27.25C0.50067 27.8465 0.737938 28.4184 1.15975 28.8403C1.58156 29.2621 2.15347 29.4993 2.75 29.5H25.25C25.8465 29.4993 26.4184 29.2621 26.8403 28.8403C27.2621 28.4184 27.4993 27.8465 27.5 27.25V4.75C27.4993 4.15347 27.2621 3.58156 26.8403 3.15975C26.4184 2.73794 25.8465 2.50067 25.25 2.5ZM6.125 4.75V5.875C6.125 6.17337 6.24353 6.45952 6.4545 6.6705C6.66548 6.88147 6.95163 7 7.25 7C7.54837 7 7.83452 6.88147 8.0455 6.6705C8.25647 6.45952 8.375 6.17337 8.375 5.875V4.75H19.625V5.875C19.625 6.17337 19.7435 6.45952 19.9545 6.6705C20.1655 6.88147 20.4516 7 20.75 7C21.0484 7 21.3345 6.88147 21.5455 6.6705C21.7565 6.45952 21.875 6.17337 21.875 5.875V4.75H25.25L25.2503 9.25H2.75V4.75H6.125ZM25.25 27.25H2.75V11.5H25.2504L25.2514 27.25H25.25Z" fill="#0FCDAC"/>
</svg>
