<svg width="24" height="18" viewBox="0 0 24 18" fill="none" xmlns="http://www.w3.org/2000/svg">
<path d="M11.9998 5.24999C11.2581 5.24999 10.5331 5.46993 9.91639 5.88198C9.29971 6.29404 8.81906 6.87971 8.53523 7.56493C8.25141 8.25015 8.17714 9.00416 8.32184 9.73158C8.46653 10.459 8.82369 11.1272 9.34813 11.6516C9.87258 12.1761 10.5408 12.5332 11.2682 12.6779C11.9956 12.8226 12.7496 12.7484 13.4348 12.4645C14.1201 12.1807 14.7057 11.7001 15.1178 11.0834C15.5299 10.4667 15.7498 9.74167 15.7498 8.99999C15.7486 8.00578 15.3532 7.05262 14.6502 6.3496C13.9472 5.64659 12.994 5.25114 11.9998 5.24999ZM11.9998 11.25C11.5548 11.25 11.1198 11.118 10.7498 10.8708C10.3797 10.6236 10.0914 10.2722 9.92105 9.86103C9.75076 9.4499 9.7062 8.9975 9.79302 8.56104C9.87983 8.12458 10.0941 7.72367 10.4088 7.409C10.7235 7.09434 11.1244 6.88004 11.5608 6.79323C11.9973 6.70641 12.4497 6.75097 12.8608 6.92127C13.272 7.09156 13.6234 7.37995 13.8706 7.74996C14.1178 8.11997 14.2498 8.55499 14.2498 8.99999C14.2491 9.59653 14.0118 10.1684 13.59 10.5902C13.1682 11.0121 12.5963 11.2493 11.9998 11.25ZM6.47097 6.66468C6.00576 7.76452 5.87965 8.97825 6.10882 10.1502C6.33799 11.3222 6.91199 12.3991 7.75722 13.2427C7.89786 13.3833 7.97687 13.5741 7.97685 13.773C7.97683 13.9719 7.8978 14.1627 7.75713 14.3033C7.61646 14.444 7.42568 14.523 7.22676 14.523C7.02785 14.5229 6.83708 14.4439 6.69644 14.3032C5.99935 13.6072 5.44632 12.7805 5.069 11.8705C4.69167 10.9605 4.49746 9.9851 4.49746 8.99999C4.49746 8.01488 4.69167 7.03944 5.069 6.12946C5.44632 5.21947 5.99935 4.39281 6.69644 3.69674C6.76593 3.6264 6.84863 3.5705 6.93981 3.53224C7.03098 3.49398 7.12882 3.47413 7.22769 3.47383C7.32657 3.47352 7.42453 3.49277 7.51593 3.53046C7.60734 3.56816 7.69039 3.62356 7.76031 3.69347C7.83023 3.76338 7.88563 3.84643 7.92333 3.93783C7.96104 4.02923 7.9803 4.12719 7.98 4.22607C7.9797 4.32494 7.95986 4.42278 7.92161 4.51396C7.88336 4.60513 7.82746 4.68785 7.75713 4.75734C7.20901 5.30393 6.77222 5.95173 6.47097 6.66478V6.66468ZM18.9101 11.9196C18.5338 12.8106 17.988 13.6201 17.3032 14.3032C17.2336 14.3729 17.1509 14.4282 17.0599 14.4658C16.9689 14.5035 16.8714 14.523 16.7729 14.523C16.6744 14.523 16.5769 14.5036 16.4859 14.4659C16.3949 14.4282 16.3122 14.373 16.2425 14.3033C16.1729 14.2337 16.1176 14.151 16.0799 14.06C16.0422 13.969 16.0228 13.8715 16.0228 13.773C16.0228 13.6745 16.0422 13.577 16.0799 13.486C16.1176 13.395 16.1728 13.3123 16.2424 13.2427C16.8003 12.6859 17.2428 12.0246 17.5448 11.2966C17.8467 10.5685 18.0021 9.78814 18.0021 8.99999C18.0021 8.21185 17.8467 7.43144 17.5448 6.70344C17.2428 5.97543 16.8003 5.31411 16.2424 4.75734C16.1721 4.68785 16.1162 4.60513 16.078 4.51396C16.0397 4.42278 16.0199 4.32494 16.0196 4.22607C16.0193 4.12719 16.0385 4.02923 16.0762 3.93783C16.1139 3.84643 16.1693 3.76338 16.2393 3.69347C16.3092 3.62356 16.3922 3.56816 16.4836 3.53046C16.575 3.49277 16.673 3.47352 16.7719 3.47383C16.8707 3.47413 16.9686 3.49398 17.0598 3.53224C17.1509 3.5705 17.2336 3.6264 17.3031 3.69674C18.3579 4.75242 19.0742 6.09851 19.3604 7.56313C19.6466 9.02775 19.4898 10.5444 18.9101 11.9196ZM5.1055 15.8944C5.17515 15.964 5.23039 16.0467 5.26809 16.1377C5.30578 16.2287 5.32518 16.3262 5.32518 16.4247C5.32518 16.5232 5.30578 16.6207 5.26809 16.7117C5.23039 16.8027 5.17515 16.8854 5.1055 16.9551C5.03586 17.0247 4.95318 17.0799 4.86218 17.1176C4.77118 17.1553 4.67365 17.1747 4.57516 17.1747C4.47666 17.1747 4.37914 17.1553 4.28814 17.1176C4.19714 17.0799 4.11446 17.0247 4.04481 16.9551C2.9991 15.911 2.1695 14.671 1.60347 13.306C1.03744 11.941 0.746094 10.4778 0.746094 9.00009C0.746094 7.52239 1.03744 6.05918 1.60347 4.69419C2.1695 3.32919 2.9991 2.08919 4.04481 1.04512C4.18599 0.907067 4.37592 0.830259 4.57337 0.831363C4.77083 0.832468 4.95988 0.911397 5.09951 1.05102C5.23913 1.19065 5.31806 1.3797 5.31916 1.57715C5.32027 1.77461 5.24346 1.96454 5.10541 2.10571C4.19898 3.01049 3.47986 4.08513 2.98921 5.26813C2.49857 6.45113 2.24601 7.71928 2.24601 8.99999C2.24601 10.2807 2.49857 11.5489 2.98921 12.7319C3.47986 13.9149 4.19898 14.9895 5.10541 15.8943L5.1055 15.8944ZM23.2498 8.99999C23.2516 10.4776 22.9614 11.9411 22.396 13.3062C21.8305 14.6714 21.0009 15.9114 19.9548 16.955C19.8142 17.0956 19.6234 17.1747 19.4245 17.1747C19.2256 17.1747 19.0348 17.0957 18.8941 16.955C18.7534 16.8144 18.6744 16.6236 18.6744 16.4247C18.6744 16.2257 18.7534 16.0349 18.8941 15.8943C19.8005 14.9895 20.5196 13.9149 21.0103 12.7319C21.5009 11.5489 21.7535 10.2807 21.7535 8.99999C21.7535 7.71928 21.5009 6.45113 21.0103 5.26813C20.5196 4.08513 19.8005 3.01049 18.8941 2.10571C18.8244 2.03606 18.7692 1.95337 18.7315 1.86237C18.6938 1.77137 18.6744 1.67383 18.6744 1.57534C18.6744 1.47684 18.6938 1.37931 18.7315 1.28831C18.7692 1.19731 18.8245 1.11462 18.8941 1.04498C18.9638 0.975333 19.0465 0.920089 19.1375 0.882399C19.2285 0.844709 19.326 0.825313 19.4245 0.825317C19.523 0.825322 19.6205 0.844727 19.7115 0.882424C19.8025 0.920122 19.8852 0.975374 19.9548 1.04503C21.0009 2.08862 21.8305 3.32862 22.396 4.69378C22.9614 6.05894 23.2516 7.52236 23.2498 8.99999Z" fill="#0FCDAC"/>
</svg>
