<svg width="30" height="30" viewBox="0 0 30 30" fill="none" xmlns="http://www.w3.org/2000/svg">
<path d="M15 0.375122C12.1075 0.375122 9.27986 1.23286 6.87479 2.83988C4.46972 4.44689 2.5952 6.73101 1.48827 9.40338C0.381337 12.0757 0.091713 15.0163 0.656022 17.8533C1.22033 20.6903 2.61323 23.2962 4.65857 25.3416C6.70391 27.3869 9.30984 28.7798 12.1468 29.3441C14.9838 29.9084 17.9244 29.6188 20.5968 28.5119C23.2691 27.4049 25.5532 25.5304 27.1602 23.1253C28.7673 20.7203 29.625 17.8927 29.625 15.0001C29.6206 11.1227 28.0784 7.4053 25.3366 4.66354C22.5948 1.92177 18.8774 0.379514 15 0.375122ZM15 27.3751C12.5525 27.3751 10.1599 26.6493 8.12482 25.2896C6.08977 23.9298 4.50363 21.9971 3.567 19.7358C2.63036 17.4746 2.3853 14.9864 2.86279 12.5859C3.34028 10.1854 4.51889 7.98035 6.24956 6.24968C7.98024 4.519 10.1852 3.3404 12.5858 2.8629C14.9863 2.38541 17.4745 2.63048 19.7357 3.56711C21.997 4.50375 23.9297 6.08988 25.2894 8.12494C26.6492 10.16 27.375 12.5526 27.375 15.0001C27.3713 18.281 26.0663 21.4265 23.7463 23.7465C21.4264 26.0664 18.2809 27.3714 15 27.3751ZM20.1241 14.0641L13.3741 9.56412C13.2047 9.45116 13.0078 9.3863 12.8044 9.37646C12.601 9.36661 12.3987 9.41216 12.2192 9.50824C12.0397 9.60431 11.8896 9.74732 11.7849 9.922C11.6803 10.0967 11.625 10.2965 11.625 10.5001V19.5001C11.625 19.7038 11.6803 19.9036 11.7849 20.0782C11.8896 20.2529 12.0397 20.3959 12.2192 20.492C12.3987 20.5881 12.601 20.6336 12.8044 20.6238C13.0078 20.6139 13.2047 20.5491 13.3741 20.4361L20.1241 15.9361C20.2782 15.8334 20.4045 15.6942 20.4919 15.5309C20.5793 15.3676 20.625 15.1853 20.625 15.0001C20.625 14.8149 20.5793 14.6326 20.4919 14.4693C20.4045 14.306 20.2782 14.1669 20.1241 14.0641ZM13.875 17.3981V12.6022L17.4719 15.0001L13.875 17.3981Z" fill="#0FCDAC"/>
</svg>
