<svg width="26" height="26" viewBox="0 0 26 26" fill="none" xmlns="http://www.w3.org/2000/svg">
<path d="M26 22.62L19.0662 15.7365C20.0812 14.1494 20.6673 12.2698 20.6673 10.2559C20.6684 4.602 16.032 0 10.3336 0C4.63529 0 0 4.602 0 10.257C0 15.9131 4.63529 20.5151 10.3336 20.5151C12.2633 20.5151 14.0674 19.9875 15.6151 19.071L22.5958 26L26 22.62ZM3.85056 10.257C3.85056 6.71125 6.75921 3.82417 10.3325 3.82417C13.907 3.82417 16.8156 6.71017 16.8156 10.257C16.8156 13.8049 13.907 16.6909 10.3325 16.6909C6.75921 16.6909 3.85056 13.8049 3.85056 10.257Z" fill="#0FCDAC"/>
</svg>
