<svg width="19" height="22" viewBox="0 0 19 22" fill="none" xmlns="http://www.w3.org/2000/svg">
<path d="M14.5007 14.0001C14.0004 13.9999 13.5051 14.1001 13.0443 14.2949C12.5834 14.4896 12.1663 14.7749 11.8178 15.1338L7.49616 12.3555C7.83557 11.4837 7.83557 10.5163 7.49616 9.64452L11.8178 6.86633C12.4665 7.52998 13.3385 7.92913 14.2648 7.98642C15.1911 8.0437 16.1057 7.75504 16.8313 7.17638C17.5568 6.59772 18.0417 5.77028 18.1919 4.85446C18.3421 3.93864 18.147 2.99966 17.6443 2.21954C17.1416 1.43941 16.3671 0.873715 15.4711 0.632094C14.575 0.390474 13.6212 0.490141 12.7944 0.911778C11.9677 1.33341 11.3269 2.04699 10.9963 2.91418C10.6658 3.78137 10.6689 4.74041 11.0052 5.6054L6.68353 8.38368C6.16312 7.84932 5.49517 7.4823 4.76508 7.32954C4.03499 7.17678 3.27593 7.24521 2.58493 7.5261C1.89394 7.80698 1.30241 8.28755 0.88596 8.90637C0.469512 9.52519 0.24707 10.2542 0.24707 11.0001C0.24707 11.746 0.469512 12.4749 0.88596 13.0937C1.30241 13.7126 1.89394 14.1931 2.58493 14.474C3.27593 14.7549 4.03499 14.8233 4.76508 14.6706C5.49517 14.5178 6.16312 14.1508 6.68353 13.6164L11.0052 16.3946C10.7159 17.1412 10.6732 17.9608 10.8833 18.7335C11.0935 19.5061 11.5455 20.1912 12.1731 20.6884C12.8008 21.1855 13.5711 21.4687 14.3713 21.4965C15.1715 21.5242 15.9596 21.2951 16.6202 20.8425C17.2808 20.39 17.7791 19.7379 18.0423 18.9817C18.3055 18.2255 18.3196 17.4049 18.0827 16.64C17.8458 15.8752 17.3702 15.2062 16.7257 14.7312C16.0811 14.2562 15.3014 13.9999 14.5007 14.0001ZM14.5007 2.00005C14.9457 2.00005 15.3807 2.13201 15.7507 2.37925C16.1207 2.62648 16.4091 2.97788 16.5794 3.38901C16.7497 3.80015 16.7943 4.25255 16.7075 4.689C16.6206 5.12546 16.4063 5.52637 16.0917 5.84104C15.777 6.15571 15.3761 6.37 14.9396 6.45682C14.5032 6.54364 14.0508 6.49908 13.6397 6.32878C13.2285 6.15848 12.8771 5.8701 12.6299 5.50008C12.3826 5.13007 12.2507 4.69506 12.2507 4.25005C12.2514 3.65352 12.4886 3.08161 12.9104 2.6598C13.3323 2.23799 13.9042 2.00072 14.5007 2.00005ZM4.00069 13.2501C3.55568 13.2501 3.12067 13.1181 2.75066 12.8709C2.38065 12.6236 2.09226 12.2722 1.92196 11.8611C1.75166 11.45 1.70711 10.9976 1.79392 10.5611C1.88074 10.1246 2.09503 9.72373 2.4097 9.40906C2.72437 9.09439 3.12528 8.8801 3.56174 8.79328C3.99819 8.70647 4.45059 8.75103 4.86173 8.92132C5.27286 9.09162 5.62426 9.38001 5.8715 9.75002C6.11873 10.12 6.25069 10.555 6.25069 11.0001C6.25002 11.5966 6.01275 12.1685 5.59094 12.5903C5.16913 13.0121 4.59722 13.2494 4.00069 13.2501ZM14.5007 20.0001C14.0557 20.0001 13.6207 19.8681 13.2507 19.6209C12.8806 19.3736 12.5923 19.0222 12.422 18.6111C12.2517 18.2 12.2071 17.7476 12.2939 17.3111C12.3807 16.8746 12.595 16.4737 12.9097 16.1591C13.2244 15.8444 13.6253 15.6301 14.0617 15.5433C14.4982 15.4565 14.9506 15.501 15.3617 15.6713C15.7729 15.8416 16.1243 16.13 16.3715 16.5C16.6187 16.87 16.7507 17.305 16.7507 17.7501C16.75 18.3466 16.5128 18.9185 16.0909 19.3403C15.6691 19.7621 15.0972 19.9994 14.5007 20.0001Z" fill="white"/>
</svg>
