<?xml version="1.0" encoding="UTF-8"?>
<svg xmlns="http://www.w3.org/2000/svg" xmlns:xlink="http://www.w3.org/1999/xlink" viewBox="0 0 50 50" width="50px" height="50px">
<g id="surface9851615">
<path style=" stroke:none;fill-rule:nonzero;fill:rgb(100%,100%,100%);fill-opacity:1;" d="M 20 25 C 20 21.410156 18.101562 18.273438 15.261719 16.511719 C 13.730469 15.558594 11.929688 15 10 15 C 4.484375 15 0 19.484375 0 25 C 0 30.515625 4.484375 35 10 35 C 12.050781 35 13.949219 34.367188 15.535156 33.300781 C 18.21875 31.511719 20 28.472656 20 25 Z M 21.957031 24.339844 L 32.304688 19.164062 C 29.886719 17.136719 28.296875 14.1875 28.058594 10.851562 L 17.839844 15.960938 C 20.21875 18.023438 21.773438 20.996094 21.957031 24.339844 Z M 17.863281 34.050781 L 28.054688 39.144531 C 28.289062 35.8125 29.882812 32.859375 32.296875 30.828125 L 21.957031 25.660156 C 21.773438 29.003906 20.238281 31.984375 17.863281 34.050781 Z M 40 0 C 34.535156 0 30.085938 4.40625 30.007812 9.855469 C 30.007812 9.902344 30 9.949219 30 10 C 30 13.6875 32.003906 16.898438 34.976562 18.632812 C 36.453125 19.496094 38.167969 20 40 20 C 45.515625 20 50 15.515625 50 10 C 50 4.484375 45.515625 0 40 0 Z M 40 30 C 37.9375 30 36.023438 30.636719 34.429688 31.710938 C 31.765625 33.507812 30 36.542969 30 40 C 30 40.015625 30.003906 40.027344 30.003906 40.042969 C 29.957031 40.046875 29.917969 40.054688 29.875 40.054688 L 30.007812 40.121094 C 30.070312 45.578125 34.527344 50 40 50 C 45.515625 50 50 45.515625 50 40 C 50 34.484375 45.515625 30 40 30 Z M 40 30 "/>
</g>
</svg>
