<svg width="32" height="32" viewBox="0 0 32 32" fill="none" xmlns="http://www.w3.org/2000/svg">
<path d="M30.3512 13.8854L21.377 10.622L18.1137 1.64792C17.9558 1.2139 17.6682 0.838976 17.2899 0.574041C16.9116 0.309106 16.461 0.166992 15.9991 0.166992C15.5373 0.166992 15.0866 0.309106 14.7083 0.574041C14.33 0.838976 14.0424 1.2139 13.8845 1.64792L10.6212 10.622L1.64694 13.8854C1.21292 14.0433 0.838 14.3309 0.573064 14.7092C0.308129 15.0875 0.166016 15.5381 0.166016 16C0.166016 16.4618 0.308129 16.9125 0.573064 17.2908C0.838 17.6691 1.21292 17.9567 1.64694 18.1145L10.6211 21.3779L13.8844 30.352C14.0423 30.786 14.3299 31.1609 14.7082 31.4259C15.0865 31.6908 15.5371 31.8329 15.999 31.8329C16.4608 31.8329 16.9115 31.6908 17.2898 31.4259C17.6681 31.1609 17.9557 30.786 18.1136 30.352L21.3769 21.3779L30.351 18.1145C30.785 17.9567 31.16 17.6691 31.4249 17.2908C31.6898 16.9125 31.832 16.4618 31.832 16C31.832 15.5381 31.6898 15.0875 31.4249 14.7092C31.16 14.3309 30.785 14.0433 30.351 13.8854H30.3512ZM20.6082 19.2633C20.299 19.3753 20.0182 19.5539 19.7856 19.7865C19.5531 20.019 19.3745 20.2999 19.2625 20.6091V20.6088L15.9987 29.5818L12.7358 20.6091C12.6238 20.2999 12.4452 20.0191 12.2127 19.7865C11.9802 19.554 11.6995 19.3753 11.3903 19.2633L2.41728 15.9995L11.39 12.7366C11.6992 12.6246 11.98 12.4461 12.2126 12.2136C12.4451 11.9811 12.6237 11.7003 12.7358 11.3911L15.9995 2.41812L19.2625 11.3908C19.3744 11.7 19.553 11.9808 19.7855 12.2134C20.018 12.446 20.2988 12.6246 20.608 12.7366L29.581 16.0004L20.6082 19.2633Z" fill="#0FCDAC"/>
</svg>
